<?xml version="1.0" encoding="utf-8"?>
<!-- Generator: Adobe Illustrator 16.0.0, SVG Export Plug-In . SVG Version: 6.00 Build 0)  -->
<!DOCTYPE svg PUBLIC "-//W3C//DTD SVG 1.1//EN" "http://www.w3.org/Graphics/SVG/1.1/DTD/svg11.dtd">
<svg version="1.1" id="Layer_1" xmlns="http://www.w3.org/2000/svg" xmlns:xlink="http://www.w3.org/1999/xlink" x="0px" y="0px"
	 width="128px" height="128px" viewBox="0 0 128 128" enable-background="new 0 0 128 128" xml:space="preserve">
<path fill="#231F20" d="M96,70V58l-8.821-1.103l-1.767-4.266l5.458-7.017l-8.485-8.485l-7.017,5.457l-4.266-1.767L70,32H58
	l-1.103,8.818l-4.268,1.768l-7.015-5.456l-8.485,8.485l5.456,7.015l-1.768,4.268L32,58v12l8.818,1.103l1.768,4.268l-5.456,7.015
	l8.485,8.485l7.014-5.456l4.269,1.769L58,96h12l1.102-8.819l4.268-1.767l7.015,5.456l8.485-8.485l-5.458-7.016l1.767-4.267L96,70z
	 M75.756,66.418l-0.699,2.253l-1.106,2.038l-1.465,1.776l-1.776,1.465l-2.038,1.106l-2.252,0.699L64,76l-2.418-0.244l-2.252-0.699
	l-2.038-1.106l-1.776-1.465l-1.465-1.776l-1.106-2.038l-0.699-2.253L52,64l0.244-2.418l0.699-2.253l1.106-2.038l1.465-1.776
	l1.776-1.465l2.038-1.106l2.252-0.699L64,52l2.418,0.244l2.252,0.699l2.038,1.106l1.776,1.465l1.465,1.776l1.106,2.038l0.699,2.253
	L76,64L75.756,66.418z"/>
</svg>
